<svg xmlns="http://www.w3.org/2000/svg" xmlns:xlink="http://www.w3.org/1999/xlink" viewBox="0 0 500.93 451.96"><defs><style>.cls-1{fill:#fff;}.cls-2{fill:url(#名称未設定グラデーション_13);}</style><linearGradient id="名称未設定グラデーション_13" x1="61.17" y1="125.28" x2="465.19" y2="411.32" gradientUnits="userSpaceOnUse"><stop offset="0" stop-color="#fffbc2"/><stop offset="1" stop-color="#ff0"/></linearGradient></defs><title>logo</title><g id="レイヤー_1" data-name="レイヤー 1"><g id="layer101"><path class="cls-1" d="M389,360.8c0-28.1-2.2-43.6-8.4-58.8-7.6-19.1-22.4-33.3-40.6-39.1-14.2-4.6-34.3-3.5-48,2.7l-5.7,2.5-6.9-4.4c-3.8-2.4-10.6-6.3-15.1-8.6L256,251V164H224v36c0,19.8-.4,36-.8,36-1.9,0-23.7-13.2-29.5-17.9-17.2-13.9-22-29.8-15.3-49.6s21.2-34.8,43.9-46c21.4-10.5,40.4-14.1,70.2-13.2,40.2,1.2,66.3,9.3,84.6,26.5,4.2,4,9.2,9.5,11,12.4,2.8,4.3,3.4,4.8,4,3.2.4-1,1.5-14.3,2.4-29.3,1.9-31.6,2.8-28.1-8.3-33.2-13.3-6-34.4-11.4-55.7-14-12.9-1.6-52.4-1.6-63.5,0-47.9,6.9-84.9,23.2-113,49.7-14.6,13.8-27.1,34-32.2,51.9-3.1,11.2-3.1,28.2.1,37.5,8.8,25.5,32.4,45,76.4,63.1,6.7,2.7,15.2,6.4,19,8.1l6.7,3.1V404l-12.2,5.9c-19.5,9.5-37.6,13.8-62.4,14.8-17.5.7-28.8-.6-49.6-5.8-45.7-11.5-86-30.6-92.6-44.1C6,372.5,5,371.2,5,372c.1,4.7,10.1,60.4,11.1,61.6a37.13,37.13,0,0,0,7.3,4.8c28.4,15.7,78.7,24.5,123,21.7,26.8-1.8,52.9-6.7,70.9-13.5l6.7-2.5V482h32V428.4l7.3-5.1c7.5-5.3,24.7-19.9,24.7-21.1,4.73-5.51,18.94-23.77,24.46-36.24L315,358.1c9.4-25.7,7.6-49.2-5.2-67.4l-2-2.8,5.3.6c13,1.6,20.6,5.2,28,13.3,10.5,11.5,14.6,25.6,15.6,54.5.2,6.77.31,12.71.3,16h0c.05,7.07.11,32.61.09,34.25L357,482h32ZM263.2,349.5c-.9,3.1-3.5,4.3-6.1,2.6s.7-25.1,3.8-28.4C263.4,321.1,265.2,342.2,263.2,349.5Z" transform="translate(-5 -30.04)"/></g></g><g id="レイヤー_2" data-name="レイヤー 2"><path class="cls-2" d="M505.5,392.1c1.4-.7-.6-1-6.6-1-22.1-.2-87.9-7.2-126.4-13.6-33.7-5.5-107-21.2-110-23.5-.5-.4-3.6-1.3-6.8-2s-11.2-2.9-18-5q-68.43-21.78-110.77-48.53c-14.54-9.29-26.83-18.94-36.76-28.86q-21-21.12-29.09-45.08A92.93,92.93,0,0,1,57.3,199.9a104.58,104.58,0,0,1,2.17-26.78A147.87,147.87,0,0,1,71.4,141.2C87.4,109.3,116.1,75.5,158,39c7.9-6.9,11.2-10.4,7.8-8.4-.8.5-26.2,19.9-56.4,43.1L54.5,115.9l-5.7,8.8q-1.23,1.9-2.4,3.8l-.58.95q-2.45,4-4.64,7.94l-.09.16c-18,32.48-23.65,63.52-17,92.35.08.35.15.69.24,1s.13.53.2.8A109.85,109.85,0,0,0,32,252.8c7,14.75,18.07,29.15,32.64,42.71.11.09.21.19.31.29l.2.18a209.14,209.14,0,0,0,30.93,23.91q2.08,1.37,4.22,2.71c1.69,1.07,4.21,2.54,7.25,4.24,6.79,3.92,14.2,7.9,22.45,12.06,1.45.73,2.91,1.45,4.36,2.16,6.47,3.28,12.46,6.23,16.64,8.14a33.85,33.85,0,0,1,3.6,1.7s0-.2.07-.48c34,14.73,72.14,26.37,132.33,41,21.7,5.3,58.7,12.9,68,14,4.1.5,17.2,2.6,46,7.6,5.8,1,11.3,1.8,12.3,1.9" transform="translate(-5 -30.04)"/></g></svg>